<?xml version="1.0" encoding="utf-8"?>
<!-- Generator: Adobe Illustrator 24.3.0, SVG Export Plug-In . SVG Version: 6.00 Build 0)  -->
<svg version="1.1" id="RGB" xmlns="http://www.w3.org/2000/svg" xmlns:xlink="http://www.w3.org/1999/xlink" x="0px" y="0px"
	 viewBox="0 0 517.5 110" style="enable-background:new 0 0 517.5 110;" xml:space="preserve">
<style type="text/css">
	.st0{fill:#ED7425;}
	.st1{fill-rule:evenodd;clip-rule:evenodd;fill:#ED7425;}
	.st2{fill-rule:evenodd;clip-rule:evenodd;fill:#29578D;}
	.st3{fill:#29578D;}
</style>
<g>
	<g>
		<path class="st0" d="M325.43,46.4c0,0.24-0.12,0.36-0.35,0.36h-10.05c-0.1,0-0.19-0.03-0.26-0.1c-0.07-0.07-0.11-0.15-0.11-0.25
			V30.85c0-0.1,0.04-0.19,0.11-0.25c0.07-0.07,0.16-0.1,0.26-0.1h10.05c0.23,0,0.35,0.12,0.35,0.35V32c0,0.09-0.03,0.17-0.1,0.24
			s-0.15,0.11-0.25,0.11h-8.23v5.04h7.9c0.23,0,0.35,0.12,0.35,0.35v1.15c0,0.09-0.03,0.17-0.1,0.24s-0.15,0.11-0.25,0.11h-7.9v5.68
			h8.23c0.23,0,0.35,0.12,0.35,0.36V46.4z"/>
		<path class="st0" d="M342.42,38.62c0,1.17-0.08,2.25-0.24,3.25c-0.16,0.99-0.47,1.86-0.94,2.6s-1.12,1.33-1.96,1.78
			c-0.84,0.45-1.95,0.71-3.31,0.78l0.44,2h3.72c0.23,0,0.35,0.12,0.35,0.35v1.25c0,0.23-0.12,0.35-0.35,0.35h-2.18
			c-0.62,0-1.13-0.06-1.54-0.18c-0.41-0.12-0.76-0.3-1.04-0.55c-0.28-0.25-0.51-0.56-0.69-0.95c-0.18-0.38-0.35-0.83-0.49-1.34
			L333.9,47c-1.3-0.1-2.36-0.38-3.18-0.84c-0.81-0.46-1.45-1.05-1.89-1.78s-0.75-1.59-0.91-2.57c-0.16-0.98-0.24-2.05-0.24-3.19
			c0-1.23,0.09-2.36,0.28-3.39c0.18-1.03,0.54-1.91,1.08-2.65c0.54-0.74,1.28-1.32,2.24-1.74c0.96-0.42,2.22-0.63,3.77-0.63
			s2.81,0.21,3.77,0.63s1.71,1,2.24,1.74c0.54,0.74,0.89,1.62,1.08,2.65C342.33,36.26,342.42,37.39,342.42,38.62z M340.15,38.61
			c0-1.01-0.05-1.92-0.14-2.73s-0.31-1.5-0.66-2.08c-0.34-0.57-0.86-1.01-1.54-1.31c-0.68-0.3-1.6-0.45-2.76-0.45
			c-1.17,0-2.1,0.15-2.77,0.46c-0.68,0.31-1.18,0.75-1.52,1.32c-0.34,0.57-0.55,1.26-0.65,2.08c-0.09,0.81-0.14,1.72-0.14,2.73
			s0.05,1.92,0.14,2.73c0.1,0.81,0.31,1.5,0.65,2.06c0.34,0.56,0.84,1,1.52,1.31c0.67,0.31,1.6,0.46,2.77,0.46
			c1.16,0,2.08-0.15,2.76-0.46s1.2-0.75,1.54-1.32c0.35-0.57,0.56-1.26,0.66-2.08C340.1,40.53,340.15,39.62,340.15,38.61z"/>
		<path class="st0" d="M358.39,40.86c0,0.84-0.08,1.63-0.23,2.38c-0.15,0.75-0.47,1.4-0.95,1.97s-1.15,1.01-2.01,1.34
			s-2,0.5-3.41,0.5c-1.26,0-2.31-0.14-3.16-0.41c-0.84-0.27-1.52-0.66-2.03-1.18s-0.87-1.15-1.09-1.9
			c-0.22-0.75-0.33-1.62-0.33-2.58V30.76c0-0.16,0.1-0.26,0.29-0.29l1.63-0.26h0.04c0.09,0,0.15,0.03,0.19,0.09s0.05,0.12,0.05,0.2
			v10.63c0,0.65,0.06,1.22,0.18,1.73s0.34,0.94,0.67,1.29c0.33,0.35,0.78,0.62,1.35,0.8c0.57,0.18,1.31,0.28,2.22,0.28
			c1.51,0,2.62-0.29,3.32-0.86c0.71-0.57,1.06-1.53,1.06-2.88V30.76c0-0.16,0.1-0.26,0.29-0.29l1.63-0.26h0.04
			c0.09,0,0.15,0.03,0.19,0.09s0.05,0.12,0.05,0.2V40.86z"/>
		<path class="st0" d="M364.11,46.43c0,0.09-0.03,0.17-0.1,0.23c-0.07,0.07-0.15,0.1-0.25,0.1h-1.47c-0.1,0-0.19-0.03-0.26-0.1
			c-0.07-0.07-0.11-0.14-0.11-0.23V30.76c0-0.16,0.09-0.26,0.29-0.29l1.63-0.26h0.04c0.09,0,0.15,0.03,0.19,0.09
			c0.04,0.06,0.05,0.12,0.05,0.2V46.43z"/>
		<path class="st0" d="M380.45,35.34c0,0.69-0.08,1.36-0.23,2.01c-0.15,0.65-0.47,1.22-0.96,1.71c-0.29,0.29-0.62,0.52-0.99,0.69
			c-0.37,0.17-0.76,0.3-1.18,0.38s-0.85,0.15-1.29,0.18c-0.44,0.03-0.87,0.04-1.28,0.04h-0.77l-3.7-0.04v6.12
			c0,0.09-0.03,0.17-0.1,0.23c-0.07,0.07-0.15,0.1-0.25,0.1h-1.47c-0.1,0-0.19-0.03-0.26-0.1c-0.07-0.07-0.11-0.14-0.11-0.23V30.85
			c0-0.1,0.04-0.19,0.11-0.25c0.07-0.07,0.16-0.1,0.26-0.1h7.06c0.79,0,1.54,0.08,2.24,0.23c0.71,0.15,1.3,0.48,1.78,0.98
			c0.35,0.38,0.63,0.86,0.82,1.44C380.35,33.73,380.45,34.46,380.45,35.34z M378.21,35.36c0-0.6-0.07-1.09-0.2-1.46
			c-0.13-0.37-0.32-0.68-0.55-0.91c-0.32-0.29-0.72-0.48-1.19-0.57c-0.47-0.09-1-0.13-1.58-0.13h-4.62v6.45l3.54-0.09
			c0.84-0.03,1.58-0.08,2.22-0.15c0.64-0.07,1.17-0.29,1.56-0.64c0.26-0.23,0.47-0.55,0.61-0.93S378.21,36.01,378.21,35.36z"/>
		<path class="st0" d="M395.28,46.34c0.01,0.03,0.02,0.08,0.02,0.15c0,0.18-0.09,0.26-0.26,0.26h-1.65c-0.07,0-0.14-0.03-0.21-0.08
			c-0.06-0.05-0.11-0.11-0.14-0.17l-2.22-6.47h-6.18l-2.18,6.51c-0.03,0.06-0.08,0.11-0.14,0.14c-0.07,0.04-0.14,0.05-0.21,0.05
			h-1.67c-0.16,0-0.24-0.09-0.24-0.26c0-0.04,0.01-0.1,0.04-0.15l5.57-15.55c0.03-0.07,0.08-0.14,0.17-0.2
			c0.08-0.06,0.16-0.09,0.23-0.09h3.21c0.06,0,0.13,0.03,0.22,0.09s0.15,0.12,0.18,0.2L395.28,46.34z M388.15,32.22h-0.9l-2.07,6.05
			h5.08L388.15,32.22z"/>
		<path class="st0" d="M415.83,46.43c0,0.1-0.04,0.18-0.11,0.24c-0.07,0.06-0.16,0.09-0.26,0.09H414c-0.22,0-0.34-0.12-0.37-0.35
			l-1.23-14.15h-0.77l-3.79,11.07c-0.03,0.09-0.08,0.17-0.15,0.24c-0.07,0.07-0.17,0.11-0.29,0.11h-2.13c-0.1,0-0.19-0.04-0.26-0.11
			c-0.07-0.07-0.12-0.15-0.15-0.24l-3.63-11.07h-0.79l-1.21,14.15c-0.03,0.23-0.15,0.35-0.38,0.35h-1.36c-0.09,0-0.17-0.03-0.24-0.1
			c-0.07-0.07-0.11-0.14-0.11-0.23v-0.02l1.28-15.55c0.03-0.23,0.15-0.35,0.38-0.35h3.83c0.12,0,0.21,0.04,0.29,0.11
			c0.07,0.07,0.12,0.15,0.15,0.24l3.34,10.85h0.11l3.41-10.85c0.03-0.09,0.08-0.17,0.17-0.24c0.08-0.07,0.17-0.11,0.27-0.11h3.79
			c0.23,0,0.35,0.12,0.35,0.35l1.34,15.55V46.43z"/>
		<path class="st0" d="M429.98,46.4c0,0.24-0.12,0.36-0.35,0.36h-10.05c-0.1,0-0.19-0.03-0.26-0.1c-0.07-0.07-0.11-0.15-0.11-0.25
			V30.85c0-0.1,0.04-0.19,0.11-0.25c0.07-0.07,0.16-0.1,0.26-0.1h10.05c0.23,0,0.35,0.12,0.35,0.35V32c0,0.09-0.03,0.17-0.1,0.24
			s-0.15,0.11-0.25,0.11h-8.23v5.04h7.9c0.23,0,0.35,0.12,0.35,0.35v1.15c0,0.09-0.03,0.17-0.1,0.24s-0.15,0.11-0.25,0.11h-7.9v5.68
			h8.23c0.23,0,0.35,0.12,0.35,0.36V46.4z"/>
		<path class="st0" d="M447.4,46.43c0,0.09-0.03,0.17-0.1,0.23c-0.07,0.07-0.15,0.1-0.25,0.1h-3.26c-0.1,0-0.19-0.04-0.25-0.11
			c-0.07-0.07-0.12-0.15-0.16-0.24l-7.46-14.15h-0.77l0.04,14.17c0,0.09-0.03,0.17-0.1,0.23c-0.07,0.07-0.15,0.1-0.25,0.1h-1.47
			c-0.1,0-0.19-0.03-0.26-0.1c-0.07-0.07-0.11-0.14-0.11-0.23v-15.6c0-0.09,0.04-0.17,0.11-0.23c0.07-0.07,0.16-0.1,0.26-0.1h3.83
			c0.1,0,0.19,0.04,0.25,0.11c0.07,0.07,0.12,0.15,0.16,0.24l7.44,14.34h0.2l-0.02-14.39c0-0.21,0.11-0.31,0.33-0.31h1.52
			c0.22,0,0.33,0.1,0.33,0.31V46.43z"/>
		<path class="st0" d="M462.71,32c0,0.09-0.03,0.17-0.1,0.24c-0.07,0.07-0.15,0.11-0.25,0.11h-5.28v14.08c0,0.09-0.03,0.17-0.1,0.23
			c-0.07,0.07-0.15,0.1-0.25,0.1h-1.47c-0.1,0-0.19-0.03-0.26-0.1c-0.07-0.07-0.11-0.14-0.11-0.23V32.35h-5.28
			c-0.1,0-0.19-0.04-0.25-0.11c-0.06-0.07-0.09-0.15-0.08-0.24v-1.14c0-0.23,0.11-0.35,0.33-0.35h12.76c0.23,0,0.35,0.12,0.35,0.35
			V32z"/>
		<path class="st0" d="M478.09,38.62c0,1.23-0.09,2.36-0.27,3.4s-0.54,1.92-1.08,2.66c-0.54,0.74-1.29,1.32-2.24,1.74
			c-0.96,0.42-2.22,0.63-3.77,0.63s-2.81-0.21-3.77-0.63s-1.71-1-2.24-1.74c-0.54-0.74-0.89-1.63-1.08-2.66s-0.28-2.17-0.28-3.4
			c0-1.23,0.09-2.36,0.28-3.39c0.18-1.03,0.54-1.91,1.08-2.65c0.54-0.74,1.28-1.32,2.24-1.74s2.22-0.63,3.77-0.63
			s2.81,0.21,3.77,0.63c0.96,0.42,1.71,1,2.24,1.74c0.54,0.74,0.89,1.62,1.08,2.65C478,36.26,478.09,37.39,478.09,38.62z
			 M475.82,38.62c0-1.01-0.05-1.93-0.14-2.74c-0.1-0.81-0.32-1.51-0.66-2.08s-0.86-1.01-1.54-1.31s-1.6-0.45-2.76-0.45
			c-1.17,0-2.1,0.15-2.77,0.46c-0.67,0.31-1.18,0.75-1.52,1.32c-0.34,0.57-0.55,1.26-0.65,2.08c-0.1,0.81-0.14,1.73-0.14,2.74
			s0.05,1.92,0.14,2.74c0.1,0.81,0.31,1.5,0.65,2.07s0.84,1,1.52,1.31c0.68,0.31,1.6,0.46,2.77,0.46c1.16,0,2.08-0.15,2.76-0.46
			s1.2-0.75,1.54-1.32c0.34-0.57,0.56-1.26,0.66-2.08C475.77,40.54,475.82,39.63,475.82,38.62z"/>
		<path class="st0" d="M492.5,42.09c0,0.97-0.18,1.77-0.55,2.4s-0.85,1.13-1.45,1.51s-1.29,0.63-2.06,0.78
			c-0.77,0.15-1.55,0.22-2.34,0.22c-0.66,0-1.28-0.03-1.87-0.1c-0.59-0.07-1.11-0.14-1.55-0.23s-0.82-0.18-1.13-0.26
			c-0.31-0.09-0.52-0.15-0.64-0.18c-0.19-0.06-0.29-0.18-0.29-0.37v-0.11l0.26-1.08c0.02-0.07,0.06-0.13,0.13-0.17
			c0.07-0.04,0.15-0.05,0.22-0.05h0.04c0.12,0.03,0.34,0.08,0.66,0.15c0.32,0.07,0.71,0.15,1.17,0.23s0.96,0.15,1.51,0.22
			c0.55,0.07,1.12,0.1,1.71,0.1c0.48,0,0.96-0.04,1.43-0.13c0.47-0.09,0.89-0.24,1.26-0.46c0.38-0.22,0.68-0.52,0.9-0.89
			c0.23-0.37,0.34-0.85,0.34-1.42c0-0.54-0.11-0.98-0.32-1.31c-0.21-0.33-0.51-0.59-0.89-0.78c-0.38-0.19-0.83-0.33-1.34-0.43
			c-0.51-0.09-1.07-0.18-1.67-0.25c-0.63-0.09-1.28-0.21-1.94-0.35s-1.26-0.38-1.8-0.7s-0.99-0.77-1.34-1.33s-0.53-1.31-0.53-2.23
			c0-0.92,0.17-1.68,0.52-2.28c0.34-0.59,0.8-1.06,1.36-1.41s1.21-0.58,1.95-0.71c0.73-0.13,1.49-0.2,2.27-0.2
			c0.64,0,1.25,0.03,1.81,0.1c0.56,0.07,1.07,0.14,1.51,0.23s0.81,0.17,1.12,0.25c0.31,0.08,0.52,0.14,0.64,0.19
			c0.21,0.04,0.31,0.17,0.31,0.37v0.09l-0.27,1.1c-0.01,0.06-0.06,0.11-0.13,0.15c-0.07,0.04-0.14,0.07-0.2,0.07h-0.04
			c-0.15-0.03-0.37-0.08-0.67-0.15s-0.66-0.15-1.07-0.23c-0.41-0.08-0.87-0.15-1.38-0.21c-0.51-0.06-1.06-0.09-1.63-0.09
			c-0.46,0-0.91,0.03-1.38,0.1c-0.46,0.07-0.88,0.19-1.25,0.37c-0.38,0.18-0.68,0.44-0.92,0.77s-0.36,0.77-0.36,1.31
			c0,0.53,0.12,0.96,0.36,1.3c0.24,0.34,0.56,0.61,0.96,0.8c0.4,0.2,0.85,0.35,1.35,0.45c0.51,0.1,1.02,0.19,1.55,0.26
			c0.64,0.09,1.3,0.19,1.98,0.31c0.68,0.12,1.29,0.33,1.84,0.63c0.55,0.3,1,0.74,1.34,1.31C492.33,40.31,492.5,41.1,492.5,42.09z"/>
		<path class="st0" d="M316.85,75.68c0,0.09-0.03,0.17-0.1,0.23c-0.07,0.07-0.15,0.1-0.25,0.1h-1.47c-0.1,0-0.19-0.03-0.26-0.1
			c-0.07-0.07-0.11-0.14-0.11-0.23V60.01c0-0.16,0.09-0.26,0.29-0.29l1.63-0.26h0.04c0.09,0,0.15,0.03,0.19,0.09
			c0.04,0.06,0.05,0.12,0.05,0.2V75.68z"/>
		<path class="st0" d="M335.02,75.68c0,0.09-0.03,0.17-0.1,0.23c-0.07,0.07-0.15,0.1-0.25,0.1h-3.26c-0.1,0-0.19-0.04-0.25-0.11
			c-0.07-0.07-0.12-0.15-0.16-0.24l-7.46-14.15h-0.77l0.04,14.17c0,0.09-0.03,0.17-0.1,0.23c-0.07,0.07-0.15,0.1-0.25,0.1h-1.47
			c-0.1,0-0.19-0.03-0.26-0.1c-0.07-0.07-0.11-0.14-0.11-0.23v-15.6c0-0.09,0.04-0.17,0.11-0.23c0.07-0.07,0.16-0.1,0.26-0.1h3.83
			c0.1,0,0.19,0.04,0.25,0.11c0.07,0.07,0.12,0.15,0.16,0.24l7.44,14.34h0.2l-0.02-14.39c0-0.21,0.11-0.31,0.33-0.31h1.52
			c0.22,0,0.33,0.1,0.33,0.31V75.68z"/>
		<path class="st0" d="M352.62,67.87c0,1.72-0.16,3.1-0.48,4.16c-0.32,1.06-0.79,1.88-1.42,2.48c-0.62,0.59-1.4,0.99-2.33,1.2
			c-0.93,0.21-2.01,0.31-3.24,0.31h-6.02c-0.1,0-0.19-0.03-0.26-0.1c-0.07-0.07-0.11-0.15-0.11-0.25V60.1c0-0.1,0.04-0.19,0.11-0.25
			c0.07-0.07,0.16-0.1,0.26-0.1h6.02c1.23,0,2.31,0.1,3.24,0.31c0.93,0.21,1.71,0.6,2.33,1.19c0.62,0.59,1.09,1.41,1.42,2.47
			S352.62,66.17,352.62,67.87z M350.42,67.82c0-1.41-0.11-2.53-0.34-3.36c-0.23-0.83-0.57-1.46-1.02-1.9
			c-0.46-0.44-1.03-0.72-1.73-0.85c-0.7-0.12-1.52-0.19-2.45-0.19h-3.92v12.69h3.89c0.94,0,1.76-0.07,2.46-0.21
			c0.71-0.14,1.28-0.43,1.74-0.88s0.79-1.09,1.02-1.94C350.31,70.36,350.42,69.23,350.42,67.82z"/>
		<path class="st0" d="M368.62,70.11c0,0.84-0.08,1.63-0.23,2.38c-0.15,0.75-0.47,1.4-0.95,1.97s-1.15,1.01-2.01,1.34
			s-2,0.5-3.41,0.5c-1.26,0-2.31-0.14-3.16-0.41s-1.52-0.66-2.02-1.18s-0.87-1.15-1.09-1.9c-0.22-0.75-0.33-1.62-0.33-2.58V60.01
			c0-0.16,0.1-0.26,0.29-0.29l1.63-0.26h0.04c0.09,0,0.15,0.03,0.19,0.09c0.04,0.06,0.05,0.12,0.05,0.2v10.63
			c0,0.65,0.06,1.22,0.18,1.73s0.34,0.94,0.67,1.29c0.33,0.35,0.78,0.62,1.35,0.8c0.57,0.18,1.31,0.28,2.22,0.28
			c1.51,0,2.62-0.29,3.32-0.86c0.7-0.57,1.05-1.53,1.05-2.88V60.01c0-0.16,0.1-0.26,0.29-0.29l1.63-0.26h0.04
			c0.09,0,0.15,0.03,0.19,0.09c0.04,0.06,0.05,0.12,0.05,0.2V70.11z"/>
		<path class="st0" d="M383.56,71.34c0,0.97-0.18,1.77-0.55,2.4c-0.37,0.63-0.85,1.13-1.45,1.51s-1.29,0.63-2.06,0.78
			c-0.77,0.15-1.55,0.22-2.34,0.22c-0.66,0-1.28-0.03-1.87-0.1c-0.59-0.07-1.1-0.14-1.55-0.23c-0.45-0.09-0.83-0.18-1.13-0.26
			c-0.31-0.09-0.52-0.15-0.64-0.18c-0.19-0.06-0.29-0.18-0.29-0.37V75l0.27-1.08c0.01-0.07,0.06-0.13,0.13-0.17
			c0.07-0.04,0.15-0.05,0.22-0.05h0.04c0.12,0.03,0.34,0.08,0.66,0.15c0.32,0.07,0.71,0.15,1.17,0.23s0.96,0.15,1.51,0.22
			c0.55,0.07,1.12,0.1,1.71,0.1c0.48,0,0.96-0.04,1.43-0.13s0.89-0.24,1.27-0.46c0.37-0.22,0.67-0.52,0.9-0.89
			c0.23-0.37,0.34-0.85,0.34-1.42c0-0.54-0.11-0.98-0.32-1.31s-0.51-0.59-0.89-0.78c-0.38-0.19-0.83-0.33-1.34-0.43
			c-0.51-0.09-1.07-0.18-1.67-0.25c-0.63-0.09-1.28-0.21-1.94-0.35s-1.26-0.38-1.8-0.7c-0.54-0.32-0.99-0.77-1.34-1.33
			c-0.35-0.56-0.53-1.31-0.53-2.23c0-0.92,0.17-1.68,0.52-2.28c0.34-0.59,0.8-1.06,1.36-1.41s1.21-0.58,1.95-0.71
			c0.73-0.13,1.49-0.2,2.27-0.2c0.65,0,1.25,0.03,1.81,0.1c0.56,0.07,1.07,0.14,1.51,0.23s0.81,0.17,1.12,0.25
			c0.31,0.08,0.52,0.14,0.64,0.19c0.21,0.04,0.31,0.17,0.31,0.37v0.09l-0.26,1.1c-0.02,0.06-0.06,0.11-0.13,0.15
			s-0.14,0.07-0.2,0.07h-0.04c-0.15-0.03-0.37-0.08-0.67-0.15s-0.66-0.15-1.07-0.23c-0.41-0.08-0.87-0.15-1.38-0.21
			s-1.06-0.09-1.63-0.09c-0.46,0-0.91,0.03-1.38,0.1c-0.46,0.07-0.88,0.19-1.25,0.37c-0.37,0.18-0.68,0.44-0.92,0.77
			s-0.36,0.77-0.36,1.31c0,0.53,0.12,0.96,0.36,1.3c0.24,0.34,0.56,0.61,0.96,0.8c0.4,0.2,0.85,0.35,1.35,0.45
			c0.51,0.1,1.02,0.19,1.55,0.26c0.64,0.09,1.3,0.19,1.98,0.31c0.67,0.12,1.29,0.33,1.84,0.63c0.55,0.3,1,0.74,1.34,1.31
			C383.38,69.56,383.56,70.35,383.56,71.34z"/>
		<path class="st0" d="M397.66,61.25c0,0.09-0.03,0.17-0.1,0.24c-0.07,0.07-0.15,0.11-0.25,0.11h-5.28v14.08
			c0,0.09-0.03,0.17-0.1,0.23c-0.07,0.07-0.15,0.1-0.25,0.1h-1.47c-0.1,0-0.19-0.03-0.26-0.1c-0.07-0.07-0.11-0.14-0.11-0.23V61.6
			h-5.28c-0.1,0-0.19-0.04-0.25-0.11c-0.06-0.07-0.09-0.15-0.08-0.24V60.1c0-0.23,0.11-0.35,0.33-0.35h12.76
			c0.23,0,0.35,0.12,0.35,0.35V61.25z"/>
		<path class="st0" d="M412.44,75.66c0,0.07-0.03,0.15-0.09,0.23c-0.06,0.08-0.13,0.12-0.22,0.12h-1.54c-0.24,0-0.36-0.1-0.38-0.31
			l-0.2-3.37c-0.07-1-0.41-1.72-1.01-2.17c-0.6-0.45-1.53-0.69-2.77-0.71l-4.53-0.11v6.34c0,0.09-0.03,0.17-0.1,0.23
			c-0.07,0.07-0.15,0.1-0.25,0.1h-1.47c-0.1,0-0.19-0.03-0.26-0.1c-0.07-0.07-0.11-0.14-0.11-0.23V60.1c0-0.1,0.04-0.19,0.11-0.25
			c0.07-0.07,0.16-0.1,0.26-0.1h7.13c0.8,0,1.53,0.08,2.17,0.23c0.64,0.15,1.18,0.41,1.62,0.77s0.77,0.83,1,1.4
			c0.23,0.57,0.34,1.28,0.34,2.11c0,1.16-0.25,2.06-0.76,2.72c-0.51,0.65-1.42,1.06-2.74,1.22v0.57c0.44,0.04,0.87,0.11,1.29,0.2
			s0.79,0.26,1.13,0.52c0.34,0.26,0.62,0.63,0.84,1.12c0.22,0.49,0.35,1.16,0.4,2.01L412.44,75.66z M409.89,64.59
			c0-1.01-0.21-1.77-0.64-2.29c-0.42-0.51-1.17-0.77-2.22-0.77h-5.32v6.2l4.4-0.15c0.53-0.01,1.02-0.06,1.48-0.14
			c0.46-0.08,0.86-0.22,1.2-0.43c0.34-0.21,0.61-0.5,0.8-0.89S409.89,65.22,409.89,64.59z"/>
		<path class="st0" d="M417.74,75.68c0,0.09-0.03,0.17-0.1,0.23c-0.07,0.07-0.15,0.1-0.25,0.1h-1.47c-0.1,0-0.19-0.03-0.26-0.1
			c-0.07-0.07-0.11-0.14-0.11-0.23V60.01c0-0.16,0.1-0.26,0.29-0.29l1.63-0.26h0.04c0.09,0,0.15,0.03,0.19,0.09s0.05,0.12,0.05,0.2
			V75.68z"/>
		<path class="st0" d="M434.88,75.59c0.01,0.03,0.02,0.08,0.02,0.15c0,0.18-0.09,0.26-0.26,0.26h-1.65c-0.07,0-0.14-0.03-0.21-0.08
			c-0.07-0.05-0.11-0.11-0.14-0.17l-2.22-6.47h-6.18l-2.18,6.51c-0.03,0.06-0.08,0.11-0.14,0.14c-0.06,0.04-0.13,0.05-0.21,0.05
			h-1.67c-0.16,0-0.24-0.09-0.24-0.26c0-0.04,0.02-0.1,0.04-0.15l5.57-15.55c0.03-0.07,0.08-0.14,0.16-0.2s0.16-0.09,0.23-0.09h3.21
			c0.06,0,0.13,0.03,0.22,0.09s0.15,0.12,0.18,0.2L434.88,75.59z M427.75,61.47h-0.9l-2.07,6.05h5.08L427.75,61.47z"/>
		<path class="st0" d="M439.13,75.68c0,0.09-0.03,0.17-0.1,0.23c-0.07,0.07-0.15,0.1-0.25,0.1h-1.47c-0.1,0-0.19-0.03-0.26-0.1
			c-0.07-0.07-0.11-0.14-0.11-0.23V60.01c0-0.16,0.1-0.26,0.29-0.29l1.63-0.26h0.04c0.09,0,0.15,0.03,0.19,0.09s0.05,0.12,0.05,0.2
			V75.68z"/>
		<path class="st0" d="M454.31,71.34c0,0.97-0.18,1.77-0.55,2.4s-0.85,1.13-1.45,1.51c-0.6,0.37-1.29,0.63-2.06,0.78
			c-0.77,0.15-1.55,0.22-2.34,0.22c-0.66,0-1.28-0.03-1.87-0.1c-0.59-0.07-1.1-0.14-1.55-0.23s-0.82-0.18-1.13-0.26
			c-0.31-0.09-0.52-0.15-0.64-0.18c-0.19-0.06-0.29-0.18-0.29-0.37V75l0.26-1.08c0.02-0.07,0.06-0.13,0.13-0.17
			c0.07-0.04,0.15-0.05,0.22-0.05h0.04c0.12,0.03,0.34,0.08,0.66,0.15c0.32,0.07,0.71,0.15,1.17,0.23c0.45,0.08,0.96,0.15,1.51,0.22
			c0.55,0.07,1.12,0.1,1.71,0.1c0.48,0,0.96-0.04,1.43-0.13c0.47-0.09,0.89-0.24,1.26-0.46c0.38-0.22,0.67-0.52,0.9-0.89
			c0.23-0.37,0.34-0.85,0.34-1.42c0-0.54-0.11-0.98-0.32-1.31s-0.51-0.59-0.89-0.78s-0.83-0.33-1.34-0.43
			c-0.51-0.09-1.07-0.18-1.67-0.25c-0.63-0.09-1.28-0.21-1.94-0.35s-1.26-0.38-1.8-0.7s-0.99-0.77-1.34-1.33s-0.53-1.31-0.53-2.23
			c0-0.92,0.17-1.68,0.52-2.28c0.35-0.59,0.8-1.06,1.37-1.41c0.56-0.34,1.21-0.58,1.95-0.71c0.73-0.13,1.49-0.2,2.27-0.2
			c0.64,0,1.25,0.03,1.81,0.1c0.56,0.07,1.07,0.14,1.51,0.23c0.44,0.09,0.81,0.17,1.12,0.25c0.31,0.08,0.52,0.14,0.64,0.19
			c0.21,0.04,0.31,0.17,0.31,0.37v0.09l-0.26,1.1c-0.01,0.06-0.06,0.11-0.13,0.15c-0.07,0.04-0.14,0.07-0.2,0.07h-0.04
			c-0.15-0.03-0.37-0.08-0.67-0.15s-0.66-0.15-1.07-0.23c-0.41-0.08-0.87-0.15-1.39-0.21s-1.05-0.09-1.63-0.09
			c-0.46,0-0.91,0.03-1.38,0.1c-0.46,0.07-0.88,0.19-1.25,0.37c-0.38,0.18-0.68,0.44-0.92,0.77c-0.24,0.33-0.36,0.77-0.36,1.31
			c0,0.53,0.12,0.96,0.36,1.3c0.24,0.34,0.56,0.61,0.96,0.8c0.39,0.2,0.85,0.35,1.35,0.45c0.51,0.1,1.02,0.19,1.55,0.26
			c0.65,0.09,1.31,0.19,1.98,0.31s1.29,0.33,1.84,0.63c0.55,0.3,1,0.74,1.34,1.31C454.13,69.56,454.31,70.35,454.31,71.34z"/>
	</g>
	<g>
		<path class="st1" d="M203.71,85.29v9.36c0,0.76-0.44,1.44-1.32,2.02c-1.08,0.74-2.61,1.11-4.61,1.11c-1.97,0-3.5-0.36-4.58-1.1
			c-0.89-0.58-1.34-1.27-1.34-2.04v-9.36c0-0.75,0.45-1.43,1.32-2.02c1.09-0.72,2.62-1.09,4.6-1.09c1.96,0,3.49,0.36,4.59,1.09
			C203.25,83.86,203.71,84.53,203.71,85.29"/>
		<path class="st2" d="M157.43,28.88v49.18c0,4.01-2.32,7.56-6.92,10.64c-5.69,3.88-13.76,5.82-24.2,5.82
			c-10.37,0-18.4-1.89-24.09-5.72c-4.68-3.07-7.03-6.66-7.03-10.74V28.88c0-3.96,2.31-7.51,6.94-10.65
			c5.69-3.81,13.75-5.72,24.18-5.72c10.3,0,18.34,1.91,24.09,5.72C155.08,21.33,157.43,24.86,157.43,28.88 M141.86,28.98
			c0-1.81-0.8-3.41-2.41-4.82c-2.47-2.27-6.85-3.41-13.15-3.41c-6.29,0-10.67,1.14-13.14,3.41c-1.6,1.41-2.42,3.01-2.42,4.82v49.09
			c0,1.8,0.81,3.42,2.42,4.81c2.48,2.28,6.86,3.42,13.14,3.42c6.29,0,10.67-1.14,13.15-3.42c1.6-1.39,2.41-3.01,2.41-4.81V28.98z"/>
		<path class="st2" d="M298.56,28.88v49.18c0,4.01-2.32,7.56-6.92,10.64c-5.7,3.88-13.76,5.82-24.19,5.82
			c-10.37,0-18.41-1.89-24.09-5.72c-4.69-3.07-7.03-6.66-7.03-10.74V28.88c0-3.96,2.3-7.51,6.94-10.65
			c5.67-3.81,13.75-5.72,24.18-5.72c10.3,0,18.35,1.91,24.09,5.72C296.22,21.33,298.56,24.86,298.56,28.88 M282.98,28.98
			c0-1.81-0.81-3.41-2.4-4.82c-2.48-2.27-6.84-3.41-13.14-3.41c-6.29,0-10.69,1.14-13.14,3.41c-1.62,1.41-2.41,3.01-2.41,4.82v49.09
			c0,1.8,0.78,3.42,2.41,4.81c2.46,2.28,6.85,3.42,13.14,3.42c6.3,0,10.66-1.14,13.14-3.42c1.59-1.39,2.4-3.01,2.4-4.81V28.98z"/>
		<path class="st3" d="M40.55,55.17c0,1.81,0.78,3.41,2.39,4.81c2.61,2.2,6.98,3.3,13.14,3.3c6.29,0,10.66-1.14,13.14-3.4
			c1.51-1.35,2.32-2.86,2.39-4.55l-0.01-16.4l0.01-10.27c0-1.81-0.79-3.43-2.39-4.83c-2.48-2.26-6.86-3.4-13.14-3.4
			c-6.16,0-10.52,1.09-13.14,3.32c-1.61,1.4-2.39,3-2.39,4.8V55.17z M87.16,55.17c0,4.01-2.33,7.56-7.01,10.62
			c-5.75,3.83-13.77,5.72-24.06,5.72c-5.97,0-11.12-0.61-15.53-1.85v20.36c0,1.14-0.78,2.11-2.31,2.9
			c-1.53,0.81-3.38,1.21-5.51,1.21c-2.22,0-4.04-0.4-5.5-1.21c-1.48-0.79-2.22-1.76-2.22-2.9V55.17V28.55
			c0-3.95,2.31-7.48,6.93-10.63c5.67-3.81,13.73-5.71,24.15-5.71c10.29,0,18.31,1.9,24.06,5.71c4.68,3.08,7.01,6.61,7.01,10.63v14.3
			v0.9V55.17z"/>
		<g>
			<path class="st2" d="M190.18,85.52c-2.37-0.57-4.22-1.44-5.53-2.64c-1.59-1.4-2.41-3.01-2.41-4.81V28.88
				c0-1.81,0.82-3.41,2.41-4.81c2.61-2.2,7-3.32,13.16-3.32c4.8,0,8.59,0.74,11.34,2.21c2.81,1.4,4.23,3.38,4.23,5.92
				c0,1.14,0.77,2.11,2.31,2.91c1.52,0.81,3.37,1.21,5.51,1.21c2.21,0,4.04-0.4,5.53-1.21c1.46-0.79,2.2-1.77,2.2-2.91
				c0-4.02-2.34-7.56-7.03-10.65c-5.77-3.81-13.79-5.72-24.09-5.72c-10.45,0-18.51,1.91-24.2,5.72c-4.6,3.14-6.92,6.7-6.92,10.65
				v49.18c0,4.08,2.35,7.67,7.02,10.74c4.2,2.83,9.69,4.6,16.46,5.33V85.52z"/>
			<path class="st2" d="M226.61,75.15c-1.46-0.79-3.26-1.2-5.41-1.2c-2.14,0-3.99,0.41-5.51,1.2c-1.54,0.8-2.31,1.78-2.31,2.91
				c0,1.8-0.81,3.42-2.43,4.81c-1.3,1.19-3.14,2.07-5.49,2.64v8.61c6.82-0.74,12.34-2.55,16.54-5.42c4.61-3.08,6.93-6.63,6.93-10.64
				C228.93,76.93,228.15,75.96,226.61,75.15z"/>
		</g>
	</g>
</g>
</svg>
